<?xml version="1.0" encoding="utf-8"?>
<!-- Generator: Adobe Illustrator 28.0.0, SVG Export Plug-In . SVG Version: 6.00 Build 0)  -->
<svg version="1.1" id="Laag_1" xmlns="http://www.w3.org/2000/svg" xmlns:xlink="http://www.w3.org/1999/xlink" x="0px" y="0px"
	 viewBox="0 0 4961 3508" style="enable-background:new 0 0 4961 3508;" xml:space="preserve">
<style type="text/css">
	.st0{fill:none;stroke:#FFFFFF;stroke-width:5;stroke-miterlimit:10;}
	.st1{stroke:#FFFFFF;stroke-width:3;stroke-miterlimit:10;}
	.st2{fill:none;stroke:#FFFFFF;stroke-width:3;stroke-miterlimit:10;}
	.st3{stroke:#FFFFFF;stroke-width:0.75;stroke-miterlimit:10;}
	.st4{stroke:#FFFFFF;stroke-width:0.5;stroke-miterlimit:10;}
	.st5{stroke:#FFFFFF;stroke-miterlimit:10;}
	.st6{fill:#B1E553;stroke:#000000;stroke-miterlimit:10;}
	.st7{fill:#E58753;stroke:#FFFFFF;stroke-width:0.75;stroke-miterlimit:10;}
	.st8{fill:#E5D053;stroke:#E58753;stroke-width:0.75;stroke-miterlimit:10;}
	.st9{fill:#E58753;stroke:#E5D053;stroke-width:0.75;stroke-miterlimit:10;}
	.st10{fill:#E5D053;stroke:#000000;stroke-width:0.75;stroke-miterlimit:10;}
	.st11{fill:none;stroke:#000000;stroke-width:5;stroke-miterlimit:10;}
	.st12{fill:none;stroke:#000000;stroke-width:3;stroke-miterlimit:10;}
	.st13{fill:#E5D053;stroke:#000000;stroke-miterlimit:10;}
	.st14{stroke:#000000;stroke-width:3;stroke-miterlimit:10;}
	.st15{fill:#E58753;stroke:#FFFFFF;stroke-miterlimit:10;}
	.st16{fill:#E58753;stroke:#FFFFFF;stroke-width:0.5;stroke-miterlimit:10;}
</style>
<path d="M152,68c0,0,16,66-27,119l-5-17l-16,12l-6-16l-16,10l-2-14l-16,10c0,0,29-53,19-107l16,13l10-13l9,15l12-15l8,16L152,68z"/>
<path class="st0" d="M137.5,101.5l-11-2l-3,8c0,0,12,3,10,10s-12,12-14,2"/>
<path class="st0" d="M106.2,102.4l7.1-2.4c0,0-7.6,19.3-7.9,22.4l-4.3-0.4l9.3,0.8l1.6,0.1"/>
<path class="st1" d="M108.5,154.5"/>
<path class="st2" d="M96.5,138.5c0,0,0-3-3-4s-6,1-7,5s-1,10,3,10s5-1,6-3"/>
<path class="st2" d="M101,143l8,1c0.5-0.2,0.7-6.7-3-8c-3.6-1.3-5.4,3.9-6,7c-0.4,1.9,0.1,7.6,3.3,7.8c2.7,0.2,4.5-1.3,4.5-1.3"/>
<path class="st2" d="M115.5,135.5c0,0,0,1,0,2s-1,12-2,14s2-16,8-15s4,9,4,9l-2,8.6"/>
<path class="st2" d="M132.9,135.8c0,0-3.8,17.7-2.1,18.7s5.7,1,5.7-2"/>
<line class="st2" x1="131.2" y1="144.8" x2="135.1" y2="145.4"/>
<path d="M243,77.5"/>
<path d="M243,68.5c0,0,16,66-27,119l-5-17l-16,12l-6-16l-16,10l-2-14l-16,10c0,0,29-53,19-107l16,13l10-13l9,15l12-15l8,16L243,68.5
	z"/>
<path class="st0" d="M230.5,101l-11-2l-3,8c0,0,12,3,10,10s-12,12-14,2"/>
<path class="st1" d="M199.5,155"/>
<path class="st2" d="M187.5,139c0,0,0-3-3-4s-6,1-7,5s-1,10,3,10s5-1,6-3"/>
<path class="st2" d="M192,143.5l8,1c0.5-0.2,0.7-6.7-3-8c-3.6-1.3-5.4,3.9-6,7c-0.4,1.9,0.1,7.6,3.3,7.8c2.7,0.2,4.5-1.3,4.5-1.3"/>
<path class="st2" d="M206.5,136c0,0,0,1,0,2s-1,12-2,14s2-16,8-15s4,9,4,9l-2,8.6"/>
<path class="st2" d="M223.9,136.3c0,0-3.8,17.7-2.1,18.7s5.7,1,5.7-2"/>
<line class="st2" x1="222.2" y1="145.3" x2="226.1" y2="145.9"/>
<path class="st0" d="M189.9,99.7c0,0,3.4-5.6,8.3-4.3c4.9,1.3,8.2,7.1,4.2,11.6s-13.3,10.1-13.3,10.1s13.8,3.6,14.8,3.7"/>
<g>
	<path class="st3" d="M277.4,78.5l-15.9,86c0,0,26,16,59,12l15-91c0,0-16,4-32,2S277.4,78.5,277.4,78.5z"/>
	<path class="st3" d="M277.4,78.5l6.1-7c0,0,10.6,3,22.8,3.5c12.2,0.5,23,0,23,0l6.2,10.5C335.5,85.5,302.4,92.5,277.4,78.5z"/>
	<path class="st3" d="M284.3,71.5c0,0,22.2-3,44.2,3C328.5,74.5,294.2,76.5,284.3,71.5z"/>
	<path class="st3" d="M261.5,164.3c0,0,2,3.2,2,5.2c0,0,26,15,53,10c0,0,1.1-2.7,3-3.4C321.5,175.5,289.5,182,261.5,164.3z"/>
</g>
<g>
	<path class="st3" d="M399.5,90.5c0,0-42,23-45,48s2.9,40.3,19.4,37.6c16.6-2.6,20.6-10.6,30.6-7.6s17.4-0.5,19.2-5.2
		S437.5,117.5,399.5,90.5z"/>
	<path class="st3" d="M375.5,80.5c0,0,0-1,5-2s3.3,2,9,2s2.5-1.8,6-2s7,4,12,2c4.8-1.9,3.8,2.3,6.4,3.2c2.6,0.8,3.7-1.4,7.1-2.3
		c0,0-17.9,5.9-21.5,13.1C395.5,89.5,381.6,80.5,375.5,80.5z"/>
</g>
<path class="st4" d="M456.6,74.2V62.1c0,0,10.9-4.7,25.7-0.3v12.4C482.3,74.2,468.5,68.3,456.6,74.2z"/>
<path class="st4" d="M465.5,71.9c-6.5,0.4-12.5,3.7-15.9,9.2c-1.5,2.4-2.7,5.3-2.7,8.2c0,8.3,2.8,11.1,5.5,20.7
	c2.8,9.7-2.3,40.8-4.1,45.6c-1.8,4.8-4.1,13.8-1.4,19.4c2.8,5.5,9.1-1.4,12.4,0c3.3,1.4,8.3,6.9,11.1,4.1c2.8-2.8,5.5-4.1,8.3-2.8
	c2.8,1.4,7.9,4.8,11.1,1.4c3.4-3.7,3.8-17.5,1.4-23.5c-2.9-7.2-6.4-20.7-5.5-38.7c0.1-2.1,0.6-6.3,1.4-8.3
	c1.8-4.8,3.6-13.5,3.2-18.9c-0.1-1.8-0.7-3.7-1.5-5.4c-3-6.2-9.1-10.3-16-11C470.5,71.8,468,71.7,465.5,71.9z"/>
<g>
	<path class="st4" d="M541.2,90.5c0,0,5.3,77.8,10.3,81.9c5,4.1,42.8,3.9,47.9,0c5.1-3.9,12.7-77.9,12.7-77.9S546.9,89.5,541.2,90.5
		z"/>
	<path class="st4" d="M541.5,90.5l71-14C612.5,76.5,568.5,59.5,541.5,90.5z"/>
	<path class="st4" d="M558.5,103.5c0,0-5,32,4,60C562.5,163.5,563.5,135.5,558.5,103.5z"/>
	<path class="st4" d="M595.3,104.6c0,0-5.9,30.8-5,59.9C590.3,164.6,599.4,136.7,595.3,104.6z"/>
	<path class="st4" d="M578.3,104.5c0,0-7.6,31.5-0.9,60.1C577.4,164.6,583.5,136.5,578.3,104.5z"/>
</g>
<g>
	<path class="st3" d="M703.7,148.2h-48.4c-6.5,0-11.8-5.3-11.8-11.8V89.3c0-6.5,5.3-11.8,11.8-11.8h48.4c6.5,0,11.8,5.3,11.8,11.8
		v47.1C715.5,142.9,710.2,148.2,703.7,148.2z"/>
	<path class="st3" d="M655.5,148.2L655.5,148.2c-6.6,0-12-5.4-12-12V89.5c0-6.6,5.4-12,12-12l0,0c6.6,0,12,5.4,12,12v46.7
		C667.5,142.8,662.1,148.2,655.5,148.2z"/>
	<rect x="653.5" y="148.2" class="st3" width="5" height="29.8"/>
	<rect x="695.5" y="148.2" class="st3" width="5" height="29.8"/>
	
		<ellipse transform="matrix(2.560844e-02 -0.9997 0.9997 2.560844e-02 545.8828 745.9166)" class="st3" cx="655.6" cy="92.9" rx="7.7" ry="5.9"/>
	<path class="st5" d="M667.5,148.2c0,0,6-3.3,7-13.3h33c0,0,0,9.9-7,13.3H667.5z"/>
</g>
<g>
	<path class="st6" d="M273.7,353.5l-15.9,86c0,0,26,16,59,12l15-91c0,0-16,4-32,2S273.7,353.5,273.7,353.5z"/>
	<path class="st6" d="M273.7,353.5l6.1-7c0,0,10.6,3,22.8,3.5c12.2,0.5,23,0,23,0l6.2,10.5C331.7,360.5,298.6,367.5,273.7,353.5z"/>
	<path class="st6" d="M280.6,346.5c0,0,22.2-3,44.2,3C324.7,349.5,290.4,351.5,280.6,346.5z"/>
	<path class="st6" d="M257.7,439.3c0,0,2,3.2,2,5.2c0,0,26,15,53,10c0,0,1.1-2.7,3-3.4C317.7,450.5,285.7,457.1,257.7,439.3z"/>
</g>
<g>
	<path class="st7" d="M166.5,511.5l-15.9,86c0,0,26,16,59,12l15-91c0,0-16,4-32,2S166.5,511.5,166.5,511.5z"/>
	<path class="st7" d="M166.5,511.5l6.1-7c0,0,10.6,3,22.8,3.5c12.2,0.5,23,0,23,0l6.2,10.5C224.6,518.5,191.5,525.5,166.5,511.5z"/>
	<path class="st7" d="M173.4,504.5c0,0,22.2-3,44.2,3C217.6,507.5,183.3,509.5,173.4,504.5z"/>
	<path class="st7" d="M150.6,597.2c0,0,2,3.2,2,5.2c0,0,26,15,53,10c0,0,1.1-2.7,3-3.4S178.6,615,150.6,597.2z"/>
</g>
<g>
	<path class="st8" d="M65.5,353.5l-15.9,86c0,0,26,16,59,12l15-91c0,0-16,4-32,2S65.5,353.5,65.5,353.5z"/>
	<path class="st8" d="M65.5,353.5l6.1-7c0,0,10.6,3,22.8,3.5s23,0,23,0l6.2,10.5C123.6,360.5,90.5,367.5,65.5,353.5z"/>
	<path class="st8" d="M72.4,346.5c0,0,22.2-3,44.2,3C116.6,349.5,82.3,351.5,72.4,346.5z"/>
	<path class="st8" d="M49.6,439.2c0,0,2,3.2,2,5.2c0,0,26,15,53,10c0,0,1.1-2.7,3-3.4C109.6,450.5,77.6,457,49.6,439.2z"/>
</g>
<g>
	<path class="st9" d="M65.2,513.5l-15.9,86c0,0,26,16,59,12l15-91c0,0-16,4-32,2S65.2,513.5,65.2,513.5z"/>
	<path class="st9" d="M65.2,513.5l6.1-7c0,0,10.6,3,22.8,3.5s23,0,23,0l6.2,10.5C123.3,520.5,90.1,527.5,65.2,513.5z"/>
	<path class="st9" d="M72.1,506.5c0,0,22.2-3,44.2,3C116.3,509.5,81.9,511.5,72.1,506.5z"/>
	<path class="st9" d="M49.3,599.3c0,0,2,3.2,2,5.2c0,0,26,15,53,10c0,0,1.1-2.7,3-3.4C109.3,610.5,77.3,617,49.3,599.3z"/>
</g>
<g>
	<path class="st10" d="M276.3,211.8l-15.9,86c0,0,26,16,59,12l15-91c0,0-16,4-32,2S276.3,211.8,276.3,211.8z"/>
	<path class="st10" d="M276.3,211.8l6.1-7c0,0,10.6,3,22.8,3.5s23,0,23,0l6.2,10.5C334.4,218.8,301.3,225.8,276.3,211.8z"/>
	<path class="st10" d="M283.2,204.8c0,0,22.2-3,44.2,3C327.4,207.8,293.1,209.8,283.2,204.8z"/>
	<path class="st10" d="M260.4,297.6c0,0,2,3.2,2,5.2c0,0,26,15,53,10c0,0,1.1-2.7,3-3.4C320.4,308.8,288.4,315.3,260.4,297.6z"/>
</g>
<g>
	<path class="st6" d="M225,344.5c0,0,16,66-27,119l-5-17l-16,12l-6-16l-16,10l-2-14l-16,10c0,0,29-53,19-107l16,13l10-13l9,15l12-15
		l8,16L225,344.5z"/>
	<path class="st11" d="M212.5,377l-11-2l-3,8c0,0,12,3,10,10s-12,12-14,2"/>
	<path class="st1" d="M181.5,431"/>
	<path class="st12" d="M169.5,415c0,0,0-3-3-4s-6,1-7,5s-1,10,3,10s5-1,6-3"/>
	<path class="st12" d="M174,419.5l8,1c0.5-0.2,0.7-6.7-3-8c-3.6-1.3-5.4,3.9-6,7c-0.4,1.9,0.1,7.6,3.3,7.8c2.7,0.2,4.5-1.3,4.5-1.3"
		/>
	<path class="st12" d="M188.5,412c0,0,0,1,0,2s-1,12-2,14s2-16,8-15s4,9,4,9l-2,8.6"/>
	<path class="st12" d="M205.9,412.3c0,0-3.8,17.7-2.1,18.7s5.7,1,5.7-2"/>
	<line class="st12" x1="204.2" y1="421.3" x2="208.1" y2="421.9"/>
	<path class="st11" d="M171.9,375.7c0,0,3.4-5.6,8.3-4.3c4.9,1.3,8.2,7.1,4.2,11.6c-4,4.5-13.3,10.1-13.3,10.1s13.8,3.6,14.8,3.7"/>
</g>
<g>
	<path class="st13" d="M247,201.5c0,0,16,66-27,119l-5-17l-16,12l-6-16l-16,10l-2-14l-16,10c0,0,29-53,19-107l16,13l10-13l9,15
		l12-15l8,16L247,201.5z"/>
	<path class="st12" d="M191.5,272c0,0,0-3-3-4s-6,1-7,5s-1,10,3,10s5-1,6-3"/>
	<path class="st11" d="M234.5,234l-11-2l-3,8c0,0,12,3,10,10s-12,12-14,2"/>
	<path class="st1" d="M203.5,288"/>
	<path class="st12" d="M196,276.5l8,1c0.5-0.2,0.7-6.7-3-8c-3.6-1.3-5.4,3.9-6,7c-0.4,1.9,0.1,7.6,3.3,7.8c2.7,0.2,4.5-1.3,4.5-1.3"
		/>
	<path class="st12" d="M210.5,269c0,0,0,1,0,2s-1,12-2,14s2-16,8-15s4,9,4,9l-2,8.6"/>
	<path class="st12" d="M227.9,269.3c0,0-3.8,17.7-2.1,18.7s5.7,1,5.7-2"/>
	<line class="st12" x1="226.2" y1="278.3" x2="230.1" y2="278.9"/>
	<path class="st11" d="M193.9,232.7c0,0,3.4-5.6,8.3-4.3c4.9,1.3,8.2,7.1,4.2,11.6c-4,4.5-13.3,10.1-13.3,10.1s13.8,3.6,14.8,3.7"/>
</g>
<path class="st13" d="M147,202.5c0,0,16,66-27,119l-5-17l-16,12l-6-16l-16,10l-2-14l-16,10c0,0,29-53,19-107l16,13l10-13l9,15l12-15
	l8,16L147,202.5z"/>
<path class="st11" d="M132.5,236l-11-2l-3,8c0,0,12,3,10,10s-12,12-14,2"/>
<path class="st11" d="M101.2,236.9l7.1-2.4c0,0-7.6,19.3-7.9,22.4l-4.3-0.4l9.3,0.8l1.6,0.1"/>
<path class="st14" d="M103.5,289"/>
<path class="st12" d="M91.5,273c0,0,0-3-3-4s-6,1-7,5s-1,10,3,10s5-1,6-3"/>
<path class="st12" d="M96,277.5l8,1c0.5-0.2,0.7-6.7-3-8c-3.6-1.3-5.4,3.9-6,7c-0.4,1.9,0.1,7.6,3.3,7.8c2.7,0.2,4.5-1.3,4.5-1.3"/>
<path class="st12" d="M110.5,270c0,0,0,1,0,2s-1,12-2,14s2-16,8-15s4,9,4,9l-2,8.6"/>
<path class="st12" d="M127.9,270.3c0,0-3.8,17.7-2.1,18.7s5.7,1,5.7-2"/>
<line class="st12" x1="126.2" y1="279.3" x2="130.1" y2="279.9"/>
<g>
	<path class="st13" d="M401.5,210.3c0,0-42,23-45,48s2.9,40.3,19.4,37.6s20.6-10.6,30.6-7.6s17.4-0.5,19.2-5.2
		S439.5,237.3,401.5,210.3z"/>
	<path class="st13" d="M377.6,200.3c0,0,0-1,5-2s3.3,2,9,2c5.7,0,2.5-1.8,6-2c3.5-0.2,7,4,12,2c4.8-1.9,3.8,2.3,6.4,3.2
		c2.6,0.8,3.7-1.4,7.1-2.3c0,0-17.9,5.9-21.5,13.1C397.5,209.3,383.6,200.3,377.6,200.3z"/>
</g>
<g>
	<path class="st15" d="M401.3,351.4c0,0-42,23-45,48s2.9,40.3,19.4,37.6c16.6-2.6,20.6-10.6,30.6-7.6s17.4-0.5,19.2-5.2
		S439.3,378.4,401.3,351.4z"/>
	<path class="st15" d="M377.3,341.4c0,0,0-1,5-2s3.3,2,9,2c5.7,0,2.5-1.8,6-2s7,4,12,2c4.8-1.9,3.8,2.3,6.4,3.2
		c2.6,0.8,3.7-1.4,7.1-2.3c0,0-17.9,5.9-21.5,13.1C397.3,350.4,383.4,341.4,377.3,341.4z"/>
</g>
<g>
	<path class="st13" d="M461.6,208.3v-12.1c0,0,10.9-4.7,25.7-0.3v12.4C487.3,208.3,473.5,202.5,461.6,208.3z"/>
	<path class="st13" d="M470.5,206c-6.5,0.4-12.5,3.7-15.9,9.2c-1.5,2.4-2.7,5.3-2.7,8.2c0,8.3,2.8,11.1,5.5,20.7
		c2.8,9.7-2.3,40.8-4.1,45.6c-1.8,4.8-4.1,13.8-1.4,19.4c2.8,5.5,9.1-1.4,12.4,0c3.3,1.4,8.3,6.9,11.1,4.1c2.8-2.8,5.5-4.1,8.3-2.8
		c2.8,1.4,7.9,4.8,11.1,1.4c3.4-3.7,3.8-17.5,1.4-23.5c-2.9-7.2-6.4-20.7-5.5-38.7c0.1-2.1,0.6-6.3,1.4-8.3
		c1.8-4.8,3.6-13.5,3.2-18.9c-0.1-1.8-0.7-3.7-1.5-5.4c-3-6.2-9.1-10.3-16-11C475.5,206,473,205.9,470.5,206z"/>
</g>
<g>
	<path class="st16" d="M461.6,338.3v-12.1c0,0,10.9-4.7,25.7-0.3v12.4C487.3,338.3,473.5,332.5,461.6,338.3z"/>
	<path class="st16" d="M470.5,336c-6.5,0.4-12.5,3.7-15.9,9.2c-1.5,2.4-2.7,5.3-2.7,8.2c0,8.3,2.8,11.1,5.5,20.7
		c2.8,9.7-2.3,40.8-4.1,45.6c-1.8,4.8-4.1,13.8-1.4,19.4c2.8,5.5,9.1-1.4,12.4,0c3.3,1.4,8.3,6.9,11.1,4.1c2.8-2.8,5.5-4.1,8.3-2.8
		c2.8,1.4,7.9,4.8,11.1,1.4c3.4-3.7,3.8-17.5,1.4-23.5c-2.9-7.2-6.4-20.7-5.5-38.7c0.1-2.1,0.6-6.3,1.4-8.3
		c1.8-4.8,3.6-13.5,3.2-18.9c-0.1-1.8-0.7-3.7-1.5-5.4c-3-6.2-9.1-10.3-16-11C475.5,336,473,335.9,470.5,336z"/>
</g>
<g>
	<path class="st13" d="M531.9,213.3c0,0,5.3,77.8,10.3,81.9s42.8,3.9,47.9,0s12.7-77.9,12.7-77.9S537.6,212.3,531.9,213.3z"/>
	<path class="st13" d="M532.2,213.3l71-14C603.2,199.3,559.2,182.3,532.2,213.3z"/>
	<path class="st13" d="M549.2,226.3c0,0-5,32,4,60C553.2,286.3,554.2,258.3,549.2,226.3z"/>
	<path class="st13" d="M586,227.5c0,0-5.9,30.8-5,59.9C581,287.4,590.1,259.5,586,227.5z"/>
	<path class="st13" d="M568.9,227.4c0,0-7.6,31.5-0.9,60.1C568,287.5,574.2,259.3,568.9,227.4z"/>
</g>
<g>
	<path class="st6" d="M535.9,351.3c0,0,5.3,77.8,10.3,81.9s42.8,3.9,47.9,0s12.7-77.9,12.7-77.9S541.6,350.3,535.9,351.3z"/>
	<path class="st6" d="M536.2,351.3l71-14C607.2,337.3,563.2,320.3,536.2,351.3z"/>
	<path class="st6" d="M553.2,364.3c0,0-5,32,4,60C557.2,424.3,558.2,396.3,553.2,364.3z"/>
	<path class="st6" d="M590,365.5c0,0-5.9,30.8-5,59.9C585,425.4,594.1,397.5,590,365.5z"/>
	<path class="st6" d="M572.9,365.4c0,0-7.6,31.5-0.9,60.1C572,425.5,578.2,397.3,572.9,365.4z"/>
</g>
<g>
	<path class="st13" d="M704,274.3h-48.4c-6.5,0-11.8-5.3-11.8-11.8v-47.1c0-6.5,5.3-11.8,11.8-11.8H704c6.5,0,11.8,5.3,11.8,11.8
		v47.1C715.8,269,710.5,274.3,704,274.3z"/>
	<path class="st13" d="M655.8,274.3L655.8,274.3c-6.6,0-12-5.4-12-12v-46.7c0-6.6,5.4-12,12-12l0,0c6.6,0,12,5.4,12,12v46.7
		C667.8,268.9,662.4,274.3,655.8,274.3z"/>
	<rect x="653.8" y="274.3" class="st13" width="5" height="29.8"/>
	<rect x="695.8" y="274.3" class="st13" width="5" height="29.8"/>
	
		<ellipse transform="matrix(2.560844e-02 -0.9997 0.9997 2.560844e-02 420.1005 869.0453)" class="st13" cx="655.8" cy="219" rx="7.7" ry="5.9"/>
	<path class="st13" d="M667.8,274.3c0,0,6-3.3,7-13.3h33c0,0,0,9.9-7,13.3H667.8z"/>
</g>
<g>
	<path class="st6" d="M704,408.3h-48.4c-6.5,0-11.8-5.3-11.8-11.8v-47.1c0-6.5,5.3-11.8,11.8-11.8H704c6.5,0,11.8,5.3,11.8,11.8
		v47.1C715.8,403,710.5,408.3,704,408.3z"/>
	<path class="st6" d="M655.8,408.3L655.8,408.3c-6.6,0-12-5.4-12-12v-46.7c0-6.6,5.4-12,12-12l0,0c6.6,0,12,5.4,12,12v46.7
		C667.8,402.9,662.4,408.3,655.8,408.3z"/>
	<rect x="653.8" y="408.3" class="st6" width="5" height="29.8"/>
	<rect x="695.8" y="408.3" class="st6" width="5" height="29.8"/>
	
		<ellipse transform="matrix(2.560844e-02 -0.9997 0.9997 2.560844e-02 286.1444 999.6138)" class="st6" cx="655.8" cy="353" rx="7.7" ry="5.9"/>
	<path class="st6" d="M667.8,408.3c0,0,6-3.3,7-13.3h33c0,0,0,9.9-7,13.3H667.8z"/>
</g>
</svg>
