<?xml version="1.0" encoding="utf-8"?>
<!-- Generator: Adobe Illustrator 28.0.0, SVG Export Plug-In . SVG Version: 6.00 Build 0)  -->
<svg version="1.1" xmlns="http://www.w3.org/2000/svg" xmlns:xlink="http://www.w3.org/1999/xlink" x="0px" y="0px"
	 viewBox="0 0 4961 3508" style="enable-background:new 0 0 4961 3508;" xml:space="preserve">
<style type="text/css">
	.st0{fill:none;stroke:#000000;stroke-width:2;stroke-miterlimit:10;}
	.st1{fill:#FFFFFF;stroke:#000000;stroke-width:5;stroke-miterlimit:10;}
</style>
<g id="Laag_2">
	<polygon class="st0" points="2032.1,39 2032.1,296.9 2179.9,296.9 2209.4,39 2298,256 2387,244 2292.2,39 2646.8,39 2712,208 
		2777,220 2837.2,296.9 3172.7,39 3231.8,39 2870,339 2934,449 3342,144 3275,137 3221,169 3200,134 3271,87 3378,95 3466.3,39 
		3562.1,39 3026.3,449 3023,508 3126,561 3161,522 3141,506 3115,535 3048,462 3231,323 3268,365 3170,478 3187,491 3388,281 
		3422.3,300 3319,420 3294,476 3505,512 3524,525 3524,550 3636.3,561 3636,590 4156,489 4093,150 4130,142 4189,471 4553,389.5 
		4553,721.6 4407,666 4031,744 4045,799 4163,777 4174.1,799 4207,775 4228,773 4553,865.7 4553,1113.8 4298,1042 4295,1026 
		3678,847 3635,866 3609,953 3781,1002 3777,1020 3554,1002 3564,1078 3543,1086 3571,1202 3697,1162 3817,1143 4308,1282 
		4491,1313 4553,1344.8 4553,1480.8 4478.4,1480.8 4228.2,1754 4194.3,1754 4178,1769 4176,1787 4074,1896 4054,1885 4021,1945 
		4229,2058 4277,1984 4288,1990 4431,1845 4439,1826 4380.8,1754 4400,1736 4452,1787 4553,1687.2 4553,1788.3 4529,1814 
		4553,1840.9 4553,1902.5 4493,1849 4328,2035 4305,2019 4267,2081 4553,2241.6 4553,2286.5 4473,2287 4209,2141 4133.4,2287 
		4151,2326 4301,2414 4317,2436 4344,2508 4220,2634 4101,2711 3928,2792 3804,2722 3783,2740 3069,2965 3012,2816 2956,2837 
		3084,3253 3200,3206 3268,3110 3366,3084 3417,3099 3488,3093 3560,3021 3762,2983 3884,2920 4080,2896 4128,2858 4193,2777 
		4360,2718 4553,2533.5 4553,2610.8 4383,2768 4318,2798 4250,2795 4205,2831 4157,2899 4125,2935 4059,2959 3925,2965 3765,3048 
		3589,3060 3518,3131 3461,3152 3337,3149 3202.7,3253 3114,3298 3164.1,3482.1 3039.2,3482.1 2998,3339 2557.4,3482.1 2004,3426 
		1942,3408 1853,3351 1731,3200 1703.9,3482.1 1656.3,3482.1 1695,3167 1549,3048 1487,2997 1427,2980 1329,2965 1288,2929 
		1255,2792 1121.4,2714.9 1121.4,2480 1139,2542 1374,2409 1350,2355 1353,2290 1157,2388 1121.4,2289.6 1121.4,2191.5 1359,2073 
		1382.2,1754 1121.4,1854.2 1121.4,1786.2 1382,1684 1399,1366 1425,1315 1121.4,1425 1121.4,1369.8 1408,1272 1440,1265 1513,1147 
		1121.4,1281.7 1121.4,1228.4 1508,1102 1539,1108 1795,644 1410,295 1121.4,1040.2 1121.4,906.4 1377,260 1314,219 1235,434 
		1159,481 1189,552 1121.4,734.5 1121.4,420.6 1197,369 1325.2,39 1404.4,39 1355,104 1336,172 1418,232 1429,262 1808,612 
		1964,355 1948,317 1958.4,39 	"/>
	<polygon class="st0" points="1777,39 1828.3,39 1803,233 1777,256.4 1611,105 1621,93 1590,72 1596.3,39 1644,39 1640,74 1761,186 
			"/>
	<polygon class="st0" points="1121.4,169.7 1251.2,39 1186.3,39 1121.4,104.4 	"/>
	<polygon class="st0" points="1828.3,634.3 1986,372 2210,341 2233,326 2301,351 2394,456 2454,406 2459,414 2402,463 2416.6,480.1 
		2457,452 2459,458.9 2424,487 2450,522 2345,693 2228,840 1941,736 	"/>
	<polygon class="st0" points="2600,610 2618.1,583 2540,517 2546,511 2632.3,583 2625,597 2678,634 2686,626 2705,637 2691,664 
		2907,792 2924,769 3069,830 3063.3,840 2957,797 2947,818 3050,879 2950,1035 2984,1062 3080,919 3090,902 3148,917 3177,894 
		3466,962 3511,1219 3483,1276 3442,1300 3384.3,1300 2893,1053 2880,1053 2880,1041 2835,1027 2835,1037 2779,1031 2763,1006 
		2744,1029 2691,1021 2691,990 2663,976 2640,991 2620,970 2614,948 2625,947 2616,916 2554,853 2540,863 2509,840 2516,829 
		2398,737 2386,709 2486,547 	"/>
	<polygon class="st0" points="1818,669 1907,746 1627,1255 1522,1192 	"/>
	<polygon class="st0" points="1935,764 1653,1268 1775,1339 2068,811 	"/>
	<polygon class="st0" points="2094,814 1948,1081 2035,1134 2215,857 	"/>
	<polygon class="st0" points="1924,1122 1738,1452 1704,2154 1765,2119 1756,2099 1833,1525 1877,1384 2007,1174 	"/>
	<polygon class="st0" points="1630,1309 1578,1395 1530,2256 1550,2298 1671,2232 1714,1443 1754,1378 	"/>
	<polygon class="st0" points="1603,1296 1546,1401 1503,2267 1521,2317 1397,2392 1374,2354 1429,1363 1502,1236 	"/>
	<polygon class="st0" points="1360,2128 1187,2215 1178,2262 1199,2318 1355,2239 	"/>
	<polygon class="st0" points="2613,1012 2521.5,905.5 2480.5,869.4 2341,754 1897,1400 1844,1660 1787,2101 1888,2234 1897.1,2234 
		1942,2271 1939,2281 2068,2312 2154.2,2312 2183,2293 2207,2328 2178,2349 2169,2339 2064,2340 1930,2302 1920,2315 1864,2267 
		1869,2257 1787,2157.5 1704,2209.7 1704,2228.3 1975,2489 2396,2581 2532,2541 2555,2528 2746,2467 2736,2436 2737,2399 2706,2367 
		2620,2322 2480.5,2300 2238,2299 2125,2139 2097,2051 2115,2049 2118,2032 2241,2018 2266,1843 2366,1685 2614,1362 2722,1204 
		2853,1103 2870,1083 2815,1067 2742,1069 2686,1093 2662,1078 2641,1098 2625,1099 2604,1123 2625,1139 2527,1266 2507,1256 
		2497,1269 2459,1239 2562,1096 2570,1094 2591,1069 2583,1052 	"/>
	<polygon class="st0" points="2881,1139 2898,1123 2907.1,1131 2887,1148 	"/>
	<polygon class="st0" points="2856,1182 2845,1165 2746,1241 2768,1275 2758,1349 2496,1738 2311,2061 2140,2074 2159,2134 
		2264,2272 2335,2260 2325,2251 2592,1796 2651,1683 2688,1703 2629,1824 2564,1934 2685,1977 2733,2012 2764,1975 2800,1938 
		2767,1890 2761,1830 2806,1803 2837.2,1770.7 2880,1635 2776,1545 2743,1545 	"/>
	<polygon class="st0" points="2721,1283 2721,1321.2 2429.7,1760.5 2287,2013.6 2311,1856 2417,1694 2629,1419 	"/>
	<polygon class="st0" points="3056,1353 3090,1319 3106.1,1336 3081.1,1366.9 3106.1,1398.9 3145,1365 3155,1378 3121,1412 
		3165,1453 3199,1418 3207,1426 3175,1459 3214,1497 3249,1465 3258,1476 3230,1509 3269,1548 3304,1512 3321,1524 3269,1584 
		3180,1658 2983,1480 2959,1406 2974,1344 2965,1334 2989.5,1300 	"/>
	<polygon class="st0" points="2979,1256 2967.1,1256 2933,1307 2923,1307 2903,1416 2941,1511.2 3131,1696 3059,1747 2875,1570 
		2788.2,1501.5 2880,1195 2890,1201 2936,1169 2971,1211 	"/>
	<polygon class="st0" points="2808,1857 2808,1871.2 2832,1902 3021,1771 2914.5,1671.8 2880,1789.9 	"/>
	<polygon class="st0" points="2880,1935.4 3181,1728 3249,1780 3268,1803 3243,1824 3251,1841 2981,2028 2923,1991 	"/>
	<polygon class="st0" points="3557,1571 3460,1517 3467,1505 3563,1559 3586,1492 3594,1366 3648.6,1366 3655,1557 3607.1,1718.5 
		3662,1778 3625,1823 3630,1828 3579.4,1878 3572,1875 3496,1959 3502,1965 3174,2316 3131,2349.5 2823,2446 2778,2359 2608,2251 
		2732,2072 2737,2048 2750,2059 2837.2,1957.6 2999,2061 3347,1825 3224,1690 3310,1627 3321,1617.3 3382,1604 3506.9,1667.5 	"/>
	<polygon class="st0" points="2635.4,2013.6 2517,2234 2562.8,2234 2697,2040 2660.8,2013.6 	"/>
	<polygon class="st0" points="2590,1997 2537,1977 2386.9,2234 2466.7,2234 	"/>
	<polygon class="st0" points="4443.8,1458 4419,1436 4431.4,1391.1 4419,1366 3788,1227 3706,1331 3786,1550 3897,1507 3951,1557 
		3838,1628 3900.4,1754 3817,1814 3840,1836 3984,1919 4025,1852 4041,1864 4153.7,1754 4140.2,1728 4177,1706 4212,1706 	"/>
	<polygon class="st0" points="3800,1637 3807,1631 3793,1615 3786,1619 3783,1667 3795,1667 	"/>
	<polygon class="st0" points="3817,1686 3846,1739 3792,1775 3764,1716 	"/>
	<polygon class="st0" points="3607,1911 3600,1902 3650,1848 3656,1854 3699,1809 3842.9,1911 4119,2071 4119,2086 4171,2119 
		4091,2267 4030,2263 3542,1976 	"/>
	<polygon class="st0" points="3194,2332 3497,2003 4293.2,2446 4312,2480 4297,2522 4237,2586 4138,2665 3955,2759 3919.2,2759 
		3390,2460 3354,2452 3334,2460 3299,2393 	"/>
	<polygon class="st0" points="2837.2,2468.4 2880,2601.5 3085.5,2534.9 3082,2526 3143,2507 3143,2516.4 3291,2471 3269,2428 
		3157,2365 3145,2372 	"/>
	<polygon class="st0" points="3092,2562 3095,2572 3155,2553 3155,2542.9 3345,2479 3382,2486 3550,2578 3522,2633 2948,2811 
		2890,2620 	"/>
	<polygon class="st0" points="3057,2806 3093,2912 3753,2699.7 3630,2629 	"/>
	<polygon class="st0" points="2420,2996 2858,2867 2890,2977.8 2777,3016 2792,3059 2908,3023 2992,3281 2547,3428 1980,3373 
		1884,3312 1778,3178 1831,3122 1919,3193 2410,3243 2430,3221 	"/>
	<polygon class="st0" points="2385,3198 2375,2998 1787.6,2867 1722,2980 1936.9,3147.5 	"/>
	<polygon class="st0" points="2420,2970 2851,2839 2798,2657 2602,2714 2604,2724 2549,2741 2546,2731 2412,2774 	"/>
	<polygon class="st0" points="2538,2706 2534,2696 2591,2681 2593.9,2693.5 2789.6,2629 2750,2494 2405.5,2601.5 2412,2745.6 	"/>
	<polygon class="st0" points="1580,2339 1697.1,2272 1964,2517 2357.8,2601.5 2364.4,2745.6 1898.1,2645 	"/>
	<polygon class="st0" points="1544,2356 1420,2433 1794,2843 2371,2970 2364.4,2780.6 1885,2674 	"/>
	<polygon class="st0" points="1228,2543 1292,2627 1328,2599 1269,2518.7 1399,2446 1747,2837 1687,2945 1504,2804 1478,2837 
		1794,3089 1754,3147.5 1521,2957 1440,2927 1360,2927.3 1325,2893 1307,2823 1279,2766 1242,2723 1190,2683 1158,2670 1140,2631 
		1148.4,2581 	"/>
</g>
<g id="Laag_3">
	<g>
		<path class="st1" d="M2964.2,2485.2h-113.2c-6.5,0-11.8-5.3-11.8-11.8v-110.6c0-6.5,5.3-11.8,11.8-11.8h113.2
			c6.5,0,11.8,5.3,11.8,11.8v110.6C2976,2479.9,2970.7,2485.2,2964.2,2485.2z"/>
		<path class="st1" d="M2872.8,2485.2h-21.6c-6.6,0-12-5.4-12-12v-110.2c0-6.6,5.4-12,12-12h21.6c6.6,0,12,5.4,12,12v110.2
			C2884.8,2479.8,2879.4,2485.2,2872.8,2485.2z"/>
		<rect x="2858.3" y="2485.2" class="st1" width="9.5" height="56.6"/>
		<rect x="2938" y="2485.2" class="st1" width="9.5" height="56.6"/>
		
			<ellipse transform="matrix(2.560844e-02 -0.9997 0.9997 2.560844e-02 409.4253 5180.5527)" class="st1" cx="2862.2" cy="2380.3" rx="14.7" ry="11.2"/>
		<path class="st1" d="M2884.8,2485.2c0,0,11.4-6.3,13.3-25.2h62.7c0,0,0,18.9-13.3,25.2H2884.8z"/>
	</g>
	<g>
		<path class="st1" d="M1544.8,193.8h-113.2c-6.5,0-11.8-5.3-11.8-11.8V71.3c0-6.5,5.3-11.8,11.8-11.8h113.2
			c6.5,0,11.8,5.3,11.8,11.8V182C1556.6,188.5,1551.3,193.8,1544.8,193.8z"/>
		<path class="st1" d="M1453.5,193.8h-21.6c-6.6,0-12-5.4-12-12V71.5c0-6.6,5.4-12,12-12h21.6c6.6,0,12,5.4,12,12v110.2
			C1465.5,188.4,1460.1,193.8,1453.5,193.8z"/>
		<rect x="1438.9" y="193.8" class="st1" width="9.5" height="56.6"/>
		<rect x="1518.6" y="193.8" class="st1" width="9.5" height="56.6"/>
		
			<ellipse transform="matrix(2.560844e-02 -0.9997 0.9997 2.560844e-02 1317.0371 1528.9155)" class="st1" cx="1442.8" cy="88.9" rx="14.7" ry="11.2"/>
		<path class="st1" d="M1465.5,193.8c0,0,11.4-6.3,13.3-25.2h62.7c0,0,0,18.9-13.3,25.2H1465.5z"/>
	</g>
	<g>
		<path class="st1" d="M3202.3,2404.6h-113.2c-6.5,0-11.8-5.3-11.8-11.8v-110.6c0-6.5,5.3-11.8,11.8-11.8h113.2
			c6.5,0,11.8,5.3,11.8,11.8v110.6C3214.1,2399.2,3208.8,2404.6,3202.3,2404.6z"/>
		<path class="st1" d="M3111,2404.6h-21.6c-6.6,0-12-5.4-12-12v-110.2c0-6.6,5.4-12,12-12h21.6c6.6,0,12,5.4,12,12v110.2
			C3123,2399.2,3117.6,2404.6,3111,2404.6z"/>
		<rect x="3096.4" y="2404.6" class="st1" width="9.5" height="56.6"/>
		<rect x="3176.1" y="2404.6" class="st1" width="9.5" height="56.6"/>
		
			<ellipse transform="matrix(2.560844e-02 -0.9997 0.9997 2.560844e-02 722.0352 5340.0376)" class="st1" cx="3100.3" cy="2299.6" rx="14.7" ry="11.2"/>
		<path class="st1" d="M3123,2404.6c0,0,11.4-6.3,13.3-25.2h62.7c0,0,0,18.9-13.3,25.2H3123z"/>
	</g>
</g>
</svg>
