<?xml version="1.0" encoding="utf-8"?>
<!-- Generator: Adobe Illustrator 28.0.0, SVG Export Plug-In . SVG Version: 6.00 Build 0)  -->
<svg version="1.1" xmlns="http://www.w3.org/2000/svg" xmlns:xlink="http://www.w3.org/1999/xlink" x="0px" y="0px"
	 viewBox="0 0 4961 3508" style="enable-background:new 0 0 4961 3508;" xml:space="preserve">
<style type="text/css">
	.st0{display:none;}
	.st1{display:inline;fill:none;stroke:#000000;stroke-width:40;stroke-miterlimit:10;}
	.st2{fill:none;stroke:#000000;stroke-width:55;stroke-miterlimit:10;}
</style>
<g id="Laag_2" class="st0">
	<rect x="1816" y="1254" class="st1" width="700" height="385"/>
	<rect x="1466" y="1832" class="st1" width="700" height="385"/>
	<rect x="1863" y="2401" class="st1" width="700" height="385"/>
	<rect x="2306" y="1828" class="st1" width="700" height="385"/>
</g>
<g id="Laag_4">
</g>
<g id="Laag_3">
	<g>
		<path class="st2" d="M2128,2102v-237c0-33.6-27.4-61-61-61h-591c-33.6,0-61,27.4-61,61v237c0,33.6,27.4,61,61,61h591
			C2100.6,2163,2128,2135.6,2128,2102z"/>
		<path class="st2" d="M2956,1983.5V1865c0-8.2-1.7-16.1-4.7-23.3l325.7-297.9L2902.5,1149v234.5c0,0-210-9-336,150.5
			c-13.9,17.6-25.6,36.2-35.5,55.5V1405c0-33.6-27.4-61-61-61h-591c-33.6,0-61,27.4-61,61v237c0,33.6,27.4,61,61,61h591
			c8.3,0,16.3-1.7,23.6-4.8c-7.6,36.9-10.8,73.1-11.5,105.8h-178c-33.6,0-61,27.4-61,61v237c0,33.6,27.4,61,61,61h318.3
			l-120.7,109.9c-9.2-5.7-20.1-8.9-31.7-8.9h-591c-33.6,0-61,27.4-61,61v237c0,33.6,27.4,61,61,61h591c33.6,0,61-27.4,61-61v-32.8
			l230,243.5l0.5-234.5c0,0,210,9.4,336.3-149.8c126.3-159.2,74.9-404.3,74.9-404.3L2956,1983.5z M2757.5,1723.5
			c56-81,165-100,165-100l3.9,189.3c-9.2-5.6-20-8.8-31.4-8.8h-168.5C2731.6,1775.8,2741,1747.3,2757.5,1723.5z M2742,2298.1
			l-2.5-135.1H2895c12.9,0,24.9-4.1,34.8-11c-5.4,16.4-12.8,32.3-22.6,46.4C2851,2279.3,2742,2298.1,2742,2298.1z"/>
	</g>
</g>
</svg>
