<?xml version="1.0" encoding="utf-8"?>
<!-- Generator: Adobe Illustrator 28.0.0, SVG Export Plug-In . SVG Version: 6.00 Build 0)  -->
<svg version="1.1" id="Laag_1" xmlns="http://www.w3.org/2000/svg" xmlns:xlink="http://www.w3.org/1999/xlink" x="0px" y="0px"
	 viewBox="0 0 4961 3508" style="enable-background:new 0 0 4961 3508;" xml:space="preserve">
<style type="text/css">
	.st0{fill:none;stroke:#000000;stroke-width:3;stroke-miterlimit:10;}
</style>
<g>
	<path class="st0" d="M2324.1,1563.2h29.6c1.7,0,3-1.4,3-3v-11.9c0-1.7-1.4-3-3-3h-29.6c-1.7,0-3,1.4-3,3v11.9
		C2321,1561.8,2322.4,1563.2,2324.1,1563.2z"/>
	<path class="st0" d="M2336.5,1583.2v-11.9c0-1.7-1.4-3-3-3h-29.6c-1.7,0-3,1.4-3,3v11.9c0,1.7,1.4,3,3,3h29.6
		C2335.2,1586.2,2336.5,1584.9,2336.5,1583.2z"/>
	<path class="st0" d="M2383.4,1580.5c0,0,1.3,6.7-1.5,10.8c-2.8,4.1-8.3,5-8.3,5l-0.2-10h1.6c1.7,0,3-1.4,3-3v-11.9c0-1.7-1.4-3-3-3
		h-6.2c0.2-1.7,0.7-3.6,1.7-5c2.8-4.1,8.3-5,8.3-5l0.3,12l17.5-16l-18.8-19.8v11.7c0,0-10.5-0.4-16.8,7.5
		c-3.5,4.5-4.3,10.3-4.2,14.5h-11.3c-1.7,0-3,1.4-3,3v11.9c0,1.7,1.4,3,3,3h25.8l-14.4,13.1v-5c0-1.7-1.4-3-3-3h-29.6
		c-1.7,0-3,1.4-3,3v11.9c0,1.7,1.4,3,3,3h29.6c1.7,0,3-1.4,3-3v-5.1l17.8,18.8l0-11.7c0,0,10.5,0.5,16.8-7.5
		c6.3-8,3.7-20.2,3.7-20.2L2383.4,1580.5z"/>
</g>
<g>
	<g>
		<path d="M2403.2,1570.6v-11.9h5.3c1.4,0,2.4,0.3,3.2,0.8s1.1,1.3,1.1,2.2c0,1-0.3,1.7-1,2.2c-0.7,0.5-1.5,0.8-2.6,0.8l0.3-0.5
			c1.2,0,2.2,0.3,2.9,0.8c0.7,0.5,1,1.3,1,2.3c0,1-0.4,1.8-1.2,2.4c-0.8,0.6-1.9,0.8-3.5,0.8H2403.2z M2404.7,1569.4h4.1
			c1,0,1.8-0.2,2.3-0.5c0.5-0.3,0.8-0.9,0.8-1.6c0-0.7-0.3-1.3-0.8-1.6c-0.5-0.3-1.3-0.5-2.3-0.5h-4.3v-1.2h3.9
			c0.9,0,1.6-0.2,2.2-0.5c0.5-0.3,0.8-0.9,0.8-1.5c0-0.7-0.3-1.2-0.8-1.5s-1.2-0.5-2.2-0.5h-3.7V1569.4z"/>
		<path d="M2418.1,1569.3h7.1v1.3h-8.6v-11.9h8.4v1.3h-6.9V1569.3z M2417.9,1563.9h6.4v1.2h-6.4V1563.9z"/>
		<path d="M2428.5,1570.6v-11.9h1.5v10.6h6.6v1.3H2428.5z"/>
		<path d="M2444.2,1570.7c-1.2,0-2.3-0.3-3.3-0.8s-1.7-1.2-2.3-2.2c-0.6-0.9-0.8-2-0.8-3.1s0.3-2.2,0.8-3.1c0.6-0.9,1.3-1.6,2.3-2.2
			s2.1-0.8,3.3-0.8c1.2,0,2.3,0.3,3.3,0.8s1.7,1.3,2.3,2.2s0.8,1.9,0.8,3.1s-0.3,2.2-0.8,3.1c-0.6,0.9-1.3,1.6-2.3,2.2
			S2445.4,1570.7,2444.2,1570.7z M2444.2,1569.4c0.9,0,1.8-0.2,2.5-0.6c0.7-0.4,1.3-1,1.7-1.7c0.4-0.7,0.6-1.5,0.6-2.4
			c0-0.9-0.2-1.7-0.6-2.5s-1-1.3-1.7-1.7c-0.7-0.4-1.6-0.6-2.5-0.6c-0.9,0-1.8,0.2-2.5,0.6c-0.7,0.4-1.3,1-1.7,1.7s-0.6,1.5-0.6,2.5
			c0,0.9,0.2,1.7,0.6,2.4c0.4,0.7,1,1.3,1.7,1.7C2442.4,1569.2,2443.2,1569.4,2444.2,1569.4z"/>
		<path d="M2458.9,1570.7c-1.2,0-2.3-0.3-3.3-0.8s-1.7-1.2-2.3-2.2c-0.6-0.9-0.8-2-0.8-3.1s0.3-2.2,0.8-3.1c0.6-0.9,1.3-1.6,2.3-2.2
			s2.1-0.8,3.3-0.8c1.2,0,2.3,0.3,3.3,0.8s1.7,1.3,2.3,2.2s0.8,1.9,0.8,3.1s-0.3,2.2-0.8,3.1c-0.6,0.9-1.3,1.6-2.3,2.2
			S2460.1,1570.7,2458.9,1570.7z M2458.9,1569.4c0.9,0,1.8-0.2,2.5-0.6c0.7-0.4,1.3-1,1.7-1.7c0.4-0.7,0.6-1.5,0.6-2.4
			c0-0.9-0.2-1.7-0.6-2.5s-1-1.3-1.7-1.7c-0.7-0.4-1.6-0.6-2.5-0.6c-0.9,0-1.8,0.2-2.5,0.6c-0.7,0.4-1.3,1-1.7,1.7s-0.6,1.5-0.6,2.5
			c0,0.9,0.2,1.7,0.6,2.4c0.4,0.7,1,1.3,1.7,1.7C2457.1,1569.2,2458,1569.4,2458.9,1569.4z"/>
		<path d="M2468.5,1570.6v-11.9h1.2l8.1,10h-0.6v-10h1.5v11.9h-1.3l-8.1-10h0.6v10H2468.5z"/>
		<path d="M2411.1,1592.5c0,0.7-0.2,1.2-0.5,1.7c-0.4,0.5-0.9,0.9-1.6,1.2c-0.7,0.3-1.5,0.4-2.5,0.4c-0.9,0-1.8-0.1-2.6-0.4
			c-0.8-0.3-1.5-0.6-2-1.1l0.6-1.2c0.4,0.4,1,0.7,1.7,1c0.7,0.3,1.5,0.4,2.3,0.4c1.1,0,1.9-0.2,2.3-0.6c0.5-0.4,0.7-0.8,0.7-1.4
			c0-0.4-0.1-0.8-0.4-1.1c-0.3-0.3-0.6-0.5-1-0.6c-0.4-0.2-0.9-0.3-1.4-0.4c-0.5-0.1-1-0.2-1.6-0.4c-0.5-0.1-1-0.3-1.4-0.6
			c-0.4-0.2-0.8-0.6-1-0.9c-0.3-0.4-0.4-0.9-0.4-1.6s0.2-1.2,0.5-1.7c0.3-0.5,0.9-0.9,1.5-1.2c0.7-0.3,1.5-0.4,2.5-0.4
			c0.7,0,1.4,0.1,2.1,0.3c0.7,0.2,1.3,0.4,1.8,0.8l-0.5,1.2c-0.5-0.3-1-0.6-1.6-0.7c-0.6-0.1-1.1-0.2-1.7-0.2c-1,0-1.8,0.2-2.3,0.6
			s-0.7,0.9-0.7,1.4c0,0.4,0.1,0.8,0.4,1.1c0.3,0.3,0.6,0.5,1,0.6c0.4,0.2,0.9,0.3,1.4,0.4c0.5,0.1,1,0.2,1.6,0.4
			c0.5,0.1,1,0.3,1.4,0.6s0.8,0.5,1,0.9C2410.9,1591.4,2411.1,1591.9,2411.1,1592.5z"/>
		<path d="M2419.3,1595.9c-1.2,0-2.3-0.3-3.2-0.8s-1.7-1.2-2.3-2.2c-0.6-0.9-0.8-2-0.8-3.1s0.3-2.2,0.8-3.1c0.6-0.9,1.3-1.6,2.3-2.2
			s2-0.8,3.2-0.8c1,0,1.8,0.1,2.6,0.4c0.8,0.3,1.4,0.7,2,1.3l-1,1c-0.5-0.5-1-0.9-1.6-1.1c-0.6-0.2-1.2-0.3-1.9-0.3
			c-0.9,0-1.8,0.2-2.5,0.6s-1.3,1-1.7,1.7s-0.6,1.5-0.6,2.4s0.2,1.7,0.6,2.4c0.4,0.7,1,1.3,1.7,1.7c0.7,0.4,1.6,0.6,2.5,0.6
			c0.7,0,1.3-0.1,1.9-0.3c0.6-0.2,1.1-0.6,1.6-1.1l1,1c-0.5,0.6-1.2,1-2,1.3S2420.3,1595.9,2419.3,1595.9z"/>
		<path d="M2426.8,1595.8v-11.9h1.5v5.2h7.2v-5.2h1.5v11.9h-1.5v-5.4h-7.2v5.4H2426.8z"/>
		<path d="M2446.7,1595.9c-1.2,0-2.3-0.3-3.3-0.8s-1.7-1.2-2.3-2.2c-0.6-0.9-0.8-2-0.8-3.1s0.3-2.2,0.8-3.1c0.6-0.9,1.3-1.6,2.3-2.2
			s2.1-0.8,3.3-0.8c1.2,0,2.3,0.3,3.3,0.8s1.7,1.3,2.3,2.2s0.8,1.9,0.8,3.1s-0.3,2.2-0.8,3.1c-0.6,0.9-1.3,1.6-2.3,2.2
			S2447.9,1595.9,2446.7,1595.9z M2446.6,1594.6c0.9,0,1.8-0.2,2.5-0.6c0.7-0.4,1.3-1,1.7-1.7c0.4-0.7,0.6-1.5,0.6-2.4
			c0-0.9-0.2-1.7-0.6-2.5s-1-1.3-1.7-1.7c-0.7-0.4-1.6-0.6-2.5-0.6c-0.9,0-1.8,0.2-2.5,0.6c-0.7,0.4-1.3,1-1.7,1.7s-0.6,1.5-0.6,2.5
			c0,0.9,0.2,1.7,0.6,2.4c0.4,0.7,1,1.3,1.7,1.7C2444.9,1594.4,2445.7,1594.6,2446.6,1594.6z"/>
		<path d="M2461.4,1595.9c-1.2,0-2.3-0.3-3.3-0.8s-1.7-1.2-2.3-2.2c-0.6-0.9-0.8-2-0.8-3.1s0.3-2.2,0.8-3.1c0.6-0.9,1.3-1.6,2.3-2.2
			s2.1-0.8,3.3-0.8c1.2,0,2.3,0.3,3.3,0.8s1.7,1.3,2.3,2.2s0.8,1.9,0.8,3.1s-0.3,2.2-0.8,3.1c-0.6,0.9-1.3,1.6-2.3,2.2
			S2462.6,1595.9,2461.4,1595.9z M2461.4,1594.6c0.9,0,1.8-0.2,2.5-0.6c0.7-0.4,1.3-1,1.7-1.7c0.4-0.7,0.6-1.5,0.6-2.4
			c0-0.9-0.2-1.7-0.6-2.5s-1-1.3-1.7-1.7c-0.7-0.4-1.6-0.6-2.5-0.6c-0.9,0-1.8,0.2-2.5,0.6c-0.7,0.4-1.3,1-1.7,1.7s-0.6,1.5-0.6,2.5
			c0,0.9,0.2,1.7,0.6,2.4c0.4,0.7,1,1.3,1.7,1.7C2459.6,1594.4,2460.5,1594.6,2461.4,1594.6z"/>
		<path d="M2471,1595.8v-11.9h1.2l8.1,10h-0.6v-10h1.5v11.9h-1.3l-8.1-10h0.6v10H2471z"/>
	</g>
</g>
</svg>
