<?xml version="1.0" encoding="utf-8"?>
<!-- Generator: Adobe Illustrator 28.0.0, SVG Export Plug-In . SVG Version: 6.00 Build 0)  -->
<svg version="1.1" id="Laag_3" xmlns="http://www.w3.org/2000/svg" xmlns:xlink="http://www.w3.org/1999/xlink" x="0px" y="0px"
	 viewBox="0 0 4961 3508" style="enable-background:new 0 0 4961 3508;" xml:space="preserve">
<style type="text/css">
	.st0{fill:none;stroke:#000000;stroke-width:55;stroke-miterlimit:10;}
</style>
<g>
	<path class="st0" d="M2128,2102v-237c0-33.6-27.4-61-61-61h-591c-33.6,0-61,27.4-61,61v237c0,33.6,27.4,61,61,61h591
		C2100.6,2163,2128,2135.6,2128,2102z"/>
	<path class="st0" d="M3266.7,1984l-234.5-0.5c0,0,25.2,134.1-31,214.9c-56.2,80.9-165.2,99.7-165.2,99.7l-2.5-135.1h61.5
		c33.6,0,61-27.4,61-61v-237c0-8.2-1.7-16.1-4.7-23.3l325.7-297.9L2902.5,1149v234.5c0,0-210-9-336,150.5
		c-13.9,17.6-25.6,36.2-35.5,55.5V1405c0-33.6-27.4-61-61-61h-591c-33.6,0-61,27.4-61,61v237c0,33.6,27.4,61,61,61h591
		c8.3,0,16.3-1.7,23.6-4.8c-7.6,36.9-10.8,73.1-11.5,105.8h-178c-33.6,0-61,27.4-61,61v237c0,33.6,27.4,61,61,61h412.3L2531,2331.8
		v-6.8c0-33.6-27.4-61-61-61h-591c-33.6,0-61,27.4-61,61v237c0,33.6,27.4,61,61,61h591c33.6,0,61-27.4,61-61v-132.3l324,343
		l0.5-234.5c0,0,210,9.4,336.3-149.8C3318.2,2229.1,3266.7,1984,3266.7,1984z M2757.5,1723.5c56-81,165-100,165-100l3.9,189.3
		c-9.2-5.6-20-8.8-31.4-8.8h-168.5C2731.6,1775.8,2741,1747.3,2757.5,1723.5z"/>
</g>
</svg>
